<svg width="20" height="20" viewBox="0 0 20 20" fill="none" xmlns="http://www.w3.org/2000/svg">
<path d="M3.97965 20L3.09033 18.7154L3.08482 18.7192C3.15106 18.6716 4.70675 17.5231 4.70675 14.8629C4.70675 13.5292 3.82993 12.0938 2.90159 10.5741C1.8688 8.88343 0.800781 7.1351 0.800781 5.25229C0.800781 1.5899 3.00475 0.0631992 3.09853 0L3.97144 1.29586L3.97773 1.29152C3.9118 1.33789 2.36318 2.45918 2.36318 5.25229C2.36318 6.69567 3.31473 8.25335 4.23494 9.7597C5.23504 11.3969 6.26919 13.0898 6.26919 14.863C6.26919 18.3746 4.07312 19.9353 3.97965 20ZM10.6049 14.863C10.6049 13.0898 9.5707 11.3969 8.57061 9.7597C7.65039 8.25335 6.69885 6.69567 6.69885 5.25229C6.69885 2.45918 8.24746 1.33789 8.3134 1.29152L8.30711 1.29586L7.43419 0C7.34041 0.0631992 5.13645 1.5899 5.13645 5.25229C5.13645 7.13514 6.20447 8.88343 7.23729 10.5742C8.16563 12.0939 9.04245 13.5292 9.04245 14.863C9.04245 17.5231 7.48677 18.6716 7.42052 18.7193L7.42603 18.7154L8.31535 20C8.40878 19.9353 10.6049 18.3746 10.6049 14.863ZM14.9015 14.863C14.9015 13.0898 13.8673 11.3969 12.8672 9.7597C11.947 8.25335 10.9955 6.69567 10.9955 5.25229C10.9955 2.45918 12.5441 1.33789 12.61 1.29152L12.6037 1.29586L11.7308 0C11.637 0.0631992 9.43305 1.5899 9.43305 5.25229C9.43305 7.13514 10.5011 8.88343 11.5339 10.5742C12.4622 12.0939 13.3391 13.5292 13.3391 14.863C13.3391 17.5231 11.7834 18.6716 11.7171 18.7193L11.7226 18.7154L12.612 20C12.7054 19.9353 14.9015 18.3746 14.9015 14.863ZM19.1981 14.863C19.1981 13.0898 18.1639 11.3969 17.1638 9.7597C16.2436 8.25335 15.2921 6.69567 15.2921 5.25229C15.2921 2.45918 16.8407 1.33789 16.9066 1.29152L16.9003 1.29586L16.0274 0C15.9336 0.0631992 13.7297 1.5899 13.7297 5.25229C13.7297 7.13514 14.7977 8.88343 15.8305 10.5742C16.7588 12.0939 17.6357 13.5292 17.6357 14.863C17.6357 17.5231 16.08 18.6716 16.0137 18.7193L16.0192 18.7154L16.9086 20C17.002 19.9353 19.1981 18.3746 19.1981 14.863Z" fill="#000A40"/>
</svg>
