<svg width="24" height="24" viewBox="0 0 24 24" fill="none" xmlns="http://www.w3.org/2000/svg">
    <path d="M10.1304 23.4944C10.6984 23.8249 11.3438 23.9989 12.001 23.9989C12.6581 23.9989 13.3035 23.8249 13.8716 23.4944L20.9436 19.3744C21.5083 19.0431 21.9768 18.5701 22.3026 18.0022C22.6284 17.4343 22.8003 16.7912 22.8012 16.1364V7.86361C22.8006 7.20854 22.6289 6.56497 22.3031 5.99667C21.9773 5.42837 21.5086 4.95506 20.9436 4.62361L13.872 0.505614C13.3038 0.175483 12.6585 0.00158691 12.0014 0.00158691C11.3443 0.00158691 10.6989 0.175483 10.1308 0.505614L3.05837 4.62521C2.49364 4.95657 2.02522 5.42965 1.69948 5.99764C1.37374 6.56564 1.20197 7.20885 1.20117 7.86361V16.1364C1.20173 16.7915 1.37343 17.4351 1.69926 18.0034C2.02508 18.5717 2.49373 19.045 3.05877 19.3764L10.1304 23.4944ZM2.00117 16.1364V7.86361C2.00157 7.34869 2.13645 6.84281 2.39246 6.39604C2.64847 5.94927 3.01672 5.57711 3.46077 5.31641L10.5336 1.19641C10.9793 0.937224 11.4857 0.800689 12.0014 0.800689C12.517 0.800689 13.0234 0.937224 13.4692 1.19641L20.5412 5.31641C20.9853 5.57703 21.3537 5.94916 21.6098 6.39594C21.8658 6.84272 22.0008 7.34865 22.0012 7.86361V16.1364C22.0008 16.6513 21.8659 17.1572 21.6099 17.604C21.3539 18.0508 20.9856 18.4229 20.5416 18.6836L13.4688 22.8036C13.023 23.0626 12.5166 23.199 12.001 23.199C11.4854 23.199 10.979 23.0626 10.5332 22.8036L3.46077 18.6836C3.0167 18.4229 2.64842 18.0508 2.39241 17.604C2.13639 17.1572 2.00153 16.6513 2.00117 16.1364Z"
          fill="#000A40"/>
    <path d="M10.936 22.112C11.2591 22.3006 11.6266 22.4 12.0008 22.4C12.375 22.4 12.7424 22.3006 13.0656 22.112L20.1384 17.992C20.4617 17.8019 20.7298 17.5308 20.9161 17.2053C21.1025 16.8799 21.2006 16.5114 21.2008 16.1364V7.86356C21.2007 7.48842 21.1025 7.11982 20.9161 6.79428C20.7297 6.46873 20.4615 6.19754 20.138 6.00756L13.0656 1.88796C12.7413 1.70276 12.3743 1.60535 12.0008 1.60535C11.6273 1.60535 11.2603 1.70276 10.936 1.88796L3.86398 6.00796C3.54051 6.19789 3.27225 6.469 3.08577 6.79447C2.89929 7.11993 2.80105 7.48846 2.80078 7.86356V16.1364C2.8009 16.5115 2.89903 16.8801 3.08545 17.2057C3.27186 17.5312 3.5401 17.8024 3.86358 17.9924L10.936 22.112ZM3.60078 7.86356C3.6007 7.62826 3.66207 7.39702 3.77881 7.19272C3.89555 6.98843 4.06362 6.81816 4.26638 6.69876L11.3384 2.57876C11.5394 2.46142 11.768 2.39959 12.0008 2.39959C12.2336 2.39959 12.4622 2.46142 12.6632 2.57876L19.7352 6.69876C19.9379 6.81816 20.106 6.98843 20.2228 7.19272C20.3395 7.39702 20.4009 7.62826 20.4008 7.86356V16.1364C20.4009 16.3716 20.3395 16.6028 20.2229 16.8071C20.1062 17.0114 19.9382 17.1817 19.7356 17.3012L12.6632 21.4212C12.4614 21.5364 12.2331 21.5969 12.0008 21.5969C11.7685 21.5969 11.5401 21.5364 11.3384 21.4212L4.26638 17.3012C4.06362 17.1818 3.89555 17.0115 3.77881 16.8072C3.66207 16.6029 3.6007 16.3717 3.60078 16.1364V7.86356Z"
          fill="#000A40"/>
    <path d="M6.4 11.6C6.50609 11.6 6.60783 11.5579 6.68284 11.4829C6.75786 11.4079 6.8 11.3061 6.8 11.2V8.64405L8.45721 11.406C8.49275 11.4652 8.543 11.5142 8.60307 11.5482C8.66314 11.5822 8.73099 11.6 8.80001 11.6C8.83609 11.6 8.872 11.5952 8.90681 11.5857C8.99113 11.5623 9.06546 11.5119 9.11842 11.4423C9.17137 11.3726 9.20003 11.2875 9.20001 11.2V7.20005C9.20001 7.09396 9.15787 6.99222 9.08285 6.91721C9.00784 6.84219 8.90609 6.80005 8.80001 6.80005C8.69392 6.80005 8.59218 6.84219 8.51716 6.91721C8.44215 6.99222 8.40001 7.09396 8.40001 7.20005V9.75605L6.7428 6.99405C6.69775 6.91912 6.62938 6.86101 6.54816 6.82863C6.46695 6.79624 6.37736 6.79136 6.2931 6.81472C6.20885 6.83809 6.13457 6.88842 6.08164 6.95801C6.0287 7.0276 6.00003 7.11261 6 7.20005V11.2C6 11.3061 6.04214 11.4079 6.11716 11.4829C6.19217 11.5579 6.29391 11.6 6.4 11.6Z"
          fill="#000A40"/>
    <path d="M10.8004 11.6C10.9065 11.6 11.0082 11.5579 11.0832 11.4829C11.1583 11.4079 11.2004 11.3061 11.2004 11.2V9.60005H12.0004C12.1065 9.60005 12.2082 9.55791 12.2832 9.48289C12.3583 9.40788 12.4004 9.30614 12.4004 9.20005C12.4004 9.09396 12.3583 8.99222 12.2832 8.91721C12.2082 8.84219 12.1065 8.80005 12.0004 8.80005H11.2004V7.60005H13.2004C13.3065 7.60005 13.4082 7.55791 13.4832 7.48289C13.5583 7.40788 13.6004 7.30614 13.6004 7.20005C13.6004 7.09396 13.5583 6.99222 13.4832 6.91721C13.4082 6.84219 13.3065 6.80005 13.2004 6.80005H10.8004C10.6943 6.80005 10.5926 6.84219 10.5175 6.91721C10.4425 6.99222 10.4004 7.09396 10.4004 7.20005V11.2C10.4004 11.3061 10.4425 11.4079 10.5175 11.4829C10.5926 11.5579 10.6943 11.6 10.8004 11.6Z"
          fill="#000A40"/>
    <path d="M14.8004 7.60005H15.6004V11.2C15.6004 11.3061 15.6425 11.4079 15.7176 11.4829C15.7926 11.5579 15.8943 11.6 16.0004 11.6C16.1065 11.6 16.2082 11.5579 16.2832 11.4829C16.3583 11.4079 16.4004 11.3061 16.4004 11.2V7.60005H17.2004C17.3065 7.60005 17.4082 7.55791 17.4832 7.48289C17.5583 7.40788 17.6004 7.30614 17.6004 7.20005C17.6004 7.09396 17.5583 6.99222 17.4832 6.91721C17.4082 6.84219 17.3065 6.80005 17.2004 6.80005H14.8004C14.6943 6.80005 14.5926 6.84219 14.5175 6.91721C14.4425 6.99222 14.4004 7.09396 14.4004 7.20005C14.4004 7.30614 14.4425 7.40788 14.5175 7.48289C14.5926 7.55791 14.6943 7.60005 14.8004 7.60005Z"
          fill="#000A40"/>
    <path d="M9.59922 13.6H13.5992C13.7053 13.6 13.807 13.5579 13.882 13.4829C13.9571 13.4079 13.9992 13.3061 13.9992 13.2C13.9992 13.094 13.9571 12.9922 13.882 12.9172C13.807 12.8422 13.7053 12.8 13.5992 12.8H9.59922C9.49313 12.8 9.39139 12.8422 9.31638 12.9172C9.24136 12.9922 9.19922 13.094 9.19922 13.2C9.19922 13.3061 9.24136 13.4079 9.31638 13.4829C9.39139 13.5579 9.49313 13.6 9.59922 13.6Z"
          fill="#000A40"/>
    <path d="M13.2004 14.4H10.8004C10.6943 14.4 10.5926 14.4422 10.5175 14.5172C10.4425 14.5922 10.4004 14.6939 10.4004 14.8C10.4004 14.9061 10.4425 15.0078 10.5175 15.0829C10.5926 15.1579 10.6943 15.2 10.8004 15.2H13.2004C13.3065 15.2 13.4082 15.1579 13.4832 15.0829C13.5583 15.0078 13.6004 14.9061 13.6004 14.8C13.6004 14.6939 13.5583 14.5922 13.4832 14.5172C13.4082 14.4422 13.3065 14.4 13.2004 14.4Z"
          fill="#000A40"/>
    <path d="M14.8004 15.2H18.4004C18.5065 15.2 18.6082 15.1579 18.6832 15.0829C18.7582 15.0078 18.8004 14.9061 18.8004 14.8C18.8004 14.6939 18.7582 14.5922 18.6832 14.5172C18.6082 14.4422 18.5065 14.4 18.4004 14.4H14.8004C14.6943 14.4 14.5926 14.4422 14.5175 14.5172C14.4425 14.5922 14.4004 14.6939 14.4004 14.8C14.4004 14.9061 14.4425 15.0078 14.5175 15.0829C14.5926 15.1579 14.6943 15.2 14.8004 15.2Z"
          fill="#000A40"/>
    <path d="M13.2004 17.6H10.8004C10.6943 17.6 10.5926 17.6421 10.5175 17.7171C10.4425 17.7921 10.4004 17.8939 10.4004 18C10.4004 18.1061 10.4425 18.2078 10.5175 18.2828C10.5926 18.3578 10.6943 18.4 10.8004 18.4H13.2004C13.3065 18.4 13.4082 18.3578 13.4832 18.2828C13.5583 18.2078 13.6004 18.1061 13.6004 18C13.6004 17.8939 13.5583 17.7921 13.4832 17.7171C13.4082 17.6421 13.3065 17.6 13.2004 17.6Z"
          fill="#000A40"/>
    <path d="M16.4004 17.6H14.8004C14.6943 17.6 14.5926 17.6421 14.5175 17.7171C14.4425 17.7921 14.4004 17.8939 14.4004 18C14.4004 18.1061 14.4425 18.2078 14.5175 18.2828C14.5926 18.3578 14.6943 18.4 14.8004 18.4H16.4004C16.5065 18.4 16.6082 18.3578 16.6832 18.2828C16.7582 18.2078 16.8004 18.1061 16.8004 18C16.8004 17.8939 16.7582 17.7921 16.6832 17.7171C16.6082 17.6421 16.5065 17.6 16.4004 17.6Z"
          fill="#000A40"/>
    <path d="M12.8 16.8C12.9061 16.8 13.0078 16.7578 13.0829 16.6828C13.1579 16.6078 13.2 16.5061 13.2 16.4C13.2 16.2939 13.1579 16.1922 13.0829 16.1172C13.0078 16.0421 12.9061 16 12.8 16H10.4C10.2939 16 10.1922 16.0421 10.1172 16.1172C10.0421 16.1922 10 16.2939 10 16.4C10 16.5061 10.0421 16.6078 10.1172 16.6828C10.1922 16.7578 10.2939 16.8 10.4 16.8H12.8Z"
          fill="#000A40"/>
    <path d="M14.4 16.8H18C18.1061 16.8 18.2078 16.7578 18.2828 16.6828C18.3579 16.6078 18.4 16.5061 18.4 16.4C18.4 16.2939 18.3579 16.1922 18.2828 16.1172C18.2078 16.0421 18.1061 16 18 16H14.4C14.2939 16 14.1922 16.0421 14.1172 16.1172C14.0421 16.1922 14 16.2939 14 16.4C14 16.5061 14.0421 16.6078 14.1172 16.6828C14.1922 16.7578 14.2939 16.8 14.4 16.8Z"
          fill="#000A40"/>
    <path d="M7.99961 12.8C7.89352 12.8 7.79178 12.8422 7.71677 12.9172C7.64175 12.9922 7.59961 13.094 7.59961 13.2V18C7.59961 18.1061 7.64175 18.2079 7.71677 18.2829C7.79178 18.3579 7.89352 18.4 7.99961 18.4C8.1057 18.4 8.20744 18.3579 8.28245 18.2829C8.35747 18.2079 8.39961 18.1061 8.39961 18V13.2C8.39961 13.094 8.35747 12.9922 8.28245 12.9172C8.20744 12.8422 8.1057 12.8 7.99961 12.8Z"
          fill="#000A40"/>
    <path d="M5.59922 13.6H6.39922C6.50531 13.6 6.60705 13.5579 6.68207 13.4829C6.75708 13.4079 6.79922 13.3061 6.79922 13.2C6.79922 13.094 6.75708 12.9922 6.68207 12.9172C6.60705 12.8422 6.50531 12.8 6.39922 12.8H5.59922C5.49313 12.8 5.39139 12.8422 5.31638 12.9172C5.24136 12.9922 5.19922 13.094 5.19922 13.2C5.19922 13.3061 5.24136 13.4079 5.31638 13.4829C5.39139 13.5579 5.49313 13.6 5.59922 13.6Z"
          fill="#000A40"/>
    <path d="M5.59922 15.2H6.39922C6.50531 15.2 6.60705 15.1579 6.68207 15.0829C6.75708 15.0078 6.79922 14.9061 6.79922 14.8C6.79922 14.6939 6.75708 14.5922 6.68207 14.5172C6.60705 14.4422 6.50531 14.4 6.39922 14.4H5.59922C5.49313 14.4 5.39139 14.4422 5.31638 14.5172C5.24136 14.5922 5.19922 14.6939 5.19922 14.8C5.19922 14.9061 5.24136 15.0078 5.31638 15.0829C5.39139 15.1579 5.49313 15.2 5.59922 15.2Z"
          fill="#000A40"/>
    <path d="M5.59922 16.8H6.39922C6.50531 16.8 6.60705 16.7578 6.68207 16.6828C6.75708 16.6078 6.79922 16.5061 6.79922 16.4C6.79922 16.2939 6.75708 16.1922 6.68207 16.1172C6.60705 16.0421 6.50531 16 6.39922 16H5.59922C5.49313 16 5.39139 16.0421 5.31638 16.1172C5.24136 16.1922 5.19922 16.2939 5.19922 16.4C5.19922 16.5061 5.24136 16.6078 5.31638 16.6828C5.39139 16.7578 5.49313 16.8 5.59922 16.8Z"
          fill="#000A40"/>
</svg>