<svg width="23" height="23" viewBox="0 0 23 23" fill="none" xmlns="http://www.w3.org/2000/svg">
<path d="M13.0471 3.45475C12.9816 3.39097 12.8941 3.35492 12.8027 3.35413H7.18685C6.93268 3.35413 6.68893 3.45509 6.50921 3.63482C6.32948 3.81454 6.22852 4.05829 6.22852 4.31246V17.25C6.22852 17.5041 6.32948 17.7479 6.50921 17.9276C6.68893 18.1073 6.93268 18.2083 7.18685 18.2083H17.2494C17.5035 18.2083 17.7473 18.1073 17.927 17.9276C18.1067 17.7479 18.2077 17.5041 18.2077 17.25V8.76871C18.2069 8.67733 18.1708 8.58978 18.1071 8.52434L13.0471 3.45475ZM13.8952 8.62496C13.641 8.62496 13.3973 8.52399 13.2175 8.34427C13.0378 8.16455 12.9369 7.92079 12.9369 7.66663V4.79163L16.7702 8.62496H13.8952Z" fill="url(#paint0_linear_439_39)"/>
<path d="M5.27149 17.25V4.3125H4.79232C4.53815 4.3125 4.2944 4.41347 4.11467 4.59319C3.93495 4.77291 3.83398 5.01667 3.83398 5.27083V19.6458C3.83398 19.9 3.93495 20.1438 4.11467 20.3235C4.2944 20.5032 4.53815 20.6042 4.79232 20.6042H16.2923C16.5465 20.6042 16.7902 20.5032 16.97 20.3235C17.1497 20.1438 17.2507 19.9 17.2507 19.6458V19.1667H7.18815C6.67982 19.1667 6.19231 18.9647 5.83286 18.6053C5.47342 18.2458 5.27149 17.7583 5.27149 17.25Z" fill="url(#paint1_linear_439_39)"/>
<defs>
<linearGradient id="paint0_linear_439_39" x1="12.2181" y1="3.35413" x2="12.2181" y2="18.2083" gradientUnits="userSpaceOnUse">
<stop stop-color="#E1E53C"/>
<stop offset="1" stop-color="#ADD145"/>
</linearGradient>
<linearGradient id="paint1_linear_439_39" x1="10.5423" y1="4.3125" x2="10.5423" y2="20.6042" gradientUnits="userSpaceOnUse">
<stop stop-color="#E1E53C"/>
<stop offset="1" stop-color="#ADD145"/>
</linearGradient>
</defs>
</svg>
